<svg width="72" height="72" viewBox="0 0 72 72" fill="none" xmlns="http://www.w3.org/2000/svg">
<rect width="72" height="72" rx="36" fill="#FDEDEC"/>
<path d="M23.2969 50.3969C23.385 51.5778 23.9154 52.6819 24.782 53.4889C25.6486 54.2959 26.7878 54.7462 27.9719 54.75H44.0282C45.2123 54.7462 46.3515 54.2959 47.2181 53.4889C48.0847 52.6819 48.615 51.5778 48.7032 50.3969L50.1782 29.75H21.8219L23.2969 50.3969Z" fill="#ED392C"/>
<path d="M53.1875 23.5H43.8125V18.8125C43.8125 18.3981 43.6479 18.0007 43.3549 17.7076C43.0618 17.4146 42.6644 17.25 42.25 17.25H29.75C29.3356 17.25 28.9382 17.4146 28.6451 17.7076C28.3521 18.0007 28.1875 18.3981 28.1875 18.8125V23.5H18.8125C18.3981 23.5 18.0007 23.6646 17.7076 23.9576C17.4146 24.2507 17.25 24.6481 17.25 25.0625C17.25 25.4769 17.4146 25.8743 17.7076 26.1674C18.0007 26.4604 18.3981 26.625 18.8125 26.625H53.1875C53.6019 26.625 53.9993 26.4604 54.2924 26.1674C54.5854 25.8743 54.75 25.4769 54.75 25.0625C54.75 24.6481 54.5854 24.2507 54.2924 23.9576C53.9993 23.6646 53.6019 23.5 53.1875 23.5ZM31.3125 20.375H40.6875V23.5H31.3125V20.375Z" fill="#ED392C"/>
</svg>
