<svg width="64" height="64" viewBox="0 0 64 64" fill="none" xmlns="http://www.w3.org/2000/svg">
<g clip-path="url(#clip0_3_134239)">
<path d="M31.9999 58.6667C46.7275 58.6667 58.6666 46.7276 58.6666 32C58.6666 17.2724 46.7275 5.33337 31.9999 5.33337C17.2723 5.33337 5.33325 17.2724 5.33325 32C5.33325 46.7276 17.2723 58.6667 31.9999 58.6667Z" fill="#F5222D"/>
<path fill-rule="evenodd" clip-rule="evenodd" d="M22.1143 22.1144C23.1557 21.073 24.8441 21.073 25.8855 22.1144L31.9999 28.6667L38.1143 22.1144C39.1557 21.073 40.8441 21.073 41.8855 22.1144C42.9269 23.1558 42.9269 24.8443 41.8855 25.8857L35.3333 32L41.8855 38.1144C42.9269 39.1558 42.9269 40.8443 41.8855 41.8857C40.8441 42.9271 39.1557 42.9271 38.1143 41.8857L31.9999 35.3334L25.8855 41.8857C24.8441 42.9271 23.1557 42.9271 22.1143 41.8857C21.0729 40.8443 21.0729 39.1558 22.1143 38.1144L28.6666 32L22.1143 25.8857C21.0729 24.8443 21.0729 23.1558 22.1143 22.1144Z" fill="white"/>
</g>
<defs>
<clipPath id="clip0_3_134239">
<rect width="53.3333" height="53.3333" fill="white" transform="translate(5.33325 5.33337)"/>
</clipPath>
</defs>
</svg>
