<svg width="64" height="64" viewBox="0 0 64 64" fill="none" xmlns="http://www.w3.org/2000/svg">
<g clip-path="url(#clip0_3_134542)">
<path d="M32.0002 58.6667C46.7278 58.6667 58.6668 46.7276 58.6668 32C58.6668 17.2724 46.7278 5.33337 32.0002 5.33337C17.2726 5.33337 5.3335 17.2724 5.3335 32C5.3335 46.7276 17.2726 58.6667 32.0002 58.6667Z" fill="#1890FF"/>
<path d="M32.4707 44.5599C35.2272 44.5599 35.7365 41.9512 35.5834 39.2639L35.1628 29.7537C34.5662 26.7821 30.3737 26.7892 29.7786 29.7537L29.3579 39.2639C29.2048 42.1631 29.7133 44.5599 32.4707 44.5599V44.5599Z" fill="white"/>
<path d="M32.4708 24.8603C34.2034 24.8603 35.608 23.4738 35.608 21.7635C35.608 20.0532 34.2034 18.6667 32.4708 18.6667C30.7381 18.6667 29.3335 20.0532 29.3335 21.7635C29.3335 23.4738 30.7381 24.8603 32.4708 24.8603Z" fill="white"/>
</g>
<defs>
<clipPath id="clip0_3_134542">
<rect width="53.3333" height="53.3333" fill="white" transform="translate(5.3335 5.33337)"/>
</clipPath>
</defs>
</svg>
