<svg width="64" height="64" viewBox="0 0 64 64" fill="none" xmlns="http://www.w3.org/2000/svg">
<g clip-path="url(#clip0_3_135134)">
<path d="M31.9999 58.6667C46.7275 58.6667 58.6666 46.7276 58.6666 32C58.6666 17.2724 46.7275 5.33337 31.9999 5.33337C17.2723 5.33337 5.33325 17.2724 5.33325 32C5.33325 46.7276 17.2723 58.6667 31.9999 58.6667Z" fill="#2EB553"/>
<path d="M29.8595 40C29.1533 40 28.4472 39.719 27.9082 39.157L22.2215 33.228C21.1434 32.1045 20.992 30.4569 22.0701 29.3333C23.1482 28.2093 24.9357 28.2093 26.0138 29.3333L29.8595 34.112L37.9526 24.843C39.0307 23.719 40.9489 23.719 42.027 24.843C43.1051 25.9665 42.7154 27.7883 41.6373 28.9119L31.8108 39.157C31.2718 39.719 30.5657 40 29.8595 40Z" fill="white"/>
</g>
<defs>
<clipPath id="clip0_3_135134">
<rect width="53.3333" height="53.3333" fill="white" transform="translate(5.33325 5.33337)"/>
</clipPath>
</defs>
</svg>
