<svg width="72" height="72" viewBox="0 0 72 72" fill="none" xmlns="http://www.w3.org/2000/svg">
<rect width="72" height="72" rx="36" fill="#FFF3EB"/>
<path d="M54.1945 46.1413L40.27 19.8178C39.8585 19.0424 39.2436 18.3938 38.4913 17.9414C37.7391 17.489 36.8778 17.25 36 17.25C35.1222 17.25 34.2609 17.489 33.5087 17.9414C32.7564 18.3938 32.1415 19.0424 31.73 19.8178L17.8054 46.1413C17.4182 46.8758 17.2276 47.698 17.2521 48.528C17.2766 49.358 17.5155 50.1675 17.9455 50.8778C18.3755 51.5882 18.9819 52.1752 19.7059 52.5817C20.4299 52.9883 21.2467 53.2007 22.0771 53.1982H49.9229C50.7533 53.2007 51.5701 52.9883 52.2941 52.5817C53.0181 52.1752 53.6245 51.5882 54.0545 50.8778C54.4845 50.1675 54.7234 49.358 54.7479 48.528C54.7724 47.698 54.5818 46.8758 54.1945 46.1413ZM36 48.5093C35.5363 48.5093 35.083 48.3717 34.6975 48.1141C34.3119 47.8565 34.0114 47.4904 33.834 47.062C33.6566 46.6336 33.6101 46.1622 33.7006 45.7074C33.7911 45.2526 34.0143 44.8349 34.3422 44.507C34.6701 44.1791 35.0878 43.9558 35.5426 43.8654C35.9974 43.7749 36.4688 43.8214 36.8972 43.9988C37.3256 44.1762 37.6917 44.4767 37.9493 44.8623C38.207 45.2478 38.3445 45.7011 38.3445 46.1648C38.3445 46.7866 38.0975 47.3829 37.6578 47.8226C37.2181 48.2622 36.6218 48.5093 36 48.5093ZM37.563 40.6944H34.437L33.6555 28.1906H38.3445L37.563 40.6944Z" fill="#FC6B03"/>
</svg>
